# xmcd
#
# Track frame offsets:
#	150
#	22784
#	47000
#	81168
#	103791
#	139358
#
# Disc length: 2264 seconds
#
# Revision: 1
# Processed by: cddbd v1.5.1PL0 Copyright (c) Steve Scherf et al.
# Submitted via: audiograbber 1.83.01
#
DISCID=4608d606
DTITLE=RAM RIDER - SWEET DANCE
DYEAR=2005
DGENRE=Techno
TTITLE0=SWEET DANCE
TTITLE1=FEELS GONNA FEEL
TTITLE2=MUSIC (-HIT BIT BEEP mix-)
TTITLE3=SWEET DANCE (TV mix)
TTITLE4=FEELS GONNA FEEL (instrumental)
TTITLE5=データトラック
EXTD=
EXTT0=
EXTT1=
EXTT2=
EXTT3=
EXTT4=
EXTT5=
PLAYORDER=
